# xmcd
#
# Track frame offsets:
#	150
#	10680
#	26147
#	41210
#	56927
#	71235
#	81905
#	97310
#	112527
#	127515
#	144307
#	155957
#	174000
#	187292
#	197417
#
# Disc length: 2792 seconds
#
# Revision: 1
# Processed by: cddbd v1.5.1PL0 Copyright (c) Steve Scherf et al.
# Submitted via: CDex 1.50Beta5
#
DISCID=ce0ae60f
DTITLE=加山雄三 - CDベスト
DYEAR=1900
DGENRE=Pop
TTITLE0=お嫁においで
TTITLE1=旅人よ
TTITLE2=君といつまでも
TTITLE3=夜空を仰いで
TTITLE4=夕陽は赤く
TTITLE5=蒼い星くず
TTITLE6=恋は紅いバラ
TTITLE7=美しいビーナス
TTITLE8=大空の彼方
TTITLE9=湯沢旅情
TTITLE10=夜空の星
TTITLE11=フィジーにおいで
TTITLE12=ぼくの妹に
TTITLE13=霧雨の舗道
TTITLE14=この愛いつまでも
EXTD=
EXTT0=
EXTT1=
EXTT2=
EXTT3=
EXTT4=
EXTT5=
EXTT6=
EXTT7=
EXTT8=
EXTT9=
EXTT10=
EXTT11=
EXTT12=
EXTT13=
EXTT14=
PLAYORDER=
